<svg xmlns="http://www.w3.org/2000/svg" width="256" height="256" viewBox="0 0 100 100"><rect width="100" height="100" rx="20" fill="#ffffff"></rect><path fill="#7d6ee7" d="M71.42 40.86L71.42 40.86Q71.42 45.99 68.77 50Q66.11 54.00 61.70 56.61L61.70 56.61Q63.41 58.95 65.16 61.11Q66.92 63.27 68.45 65.25Q69.98 67.23 71.19 68.94Q72.41 70.66 73.22 72.00L73.22 72.00Q72.32 75.16 69.94 76.82Q67.55 78.48 64.58 78.48L64.58 78.48Q62.60 78.48 61.16 78.03Q59.72 77.58 58.64 76.77Q57.56 75.96 56.66 74.79Q55.76 73.63 54.95 72.27L54.95 72.27L47.30 59.94L42.53 59.94L42.53 77.49Q41.54 77.77 39.47 78.03Q37.40 78.30 35.24 78.30L35.24 78.30Q30.47 78.30 28.63 76.68Q26.78 75.06 26.78 70.83L26.78 70.83L26.78 28.17Q26.78 26.28 27.81 25.25Q28.85 24.21 30.65 23.58L30.65 23.58Q33.71 22.50 37.76 22.01Q41.81 21.51 46.40 21.51L46.40 21.51Q58.82 21.51 65.12 26.78Q71.42 32.04 71.42 40.86ZM42.35 47.97L46.85 47.97Q50.63 47.97 53.06 46.22Q55.49 44.46 55.49 41.04L55.49 41.04Q55.49 37.62 53.28 35.87Q51.08 34.11 46.31 34.11L46.31 34.11Q45.23 34.11 44.28 34.20Q43.34 34.29 42.35 34.47L42.35 34.47L42.35 47.97Z"></path></svg>